<?xml version="1.0" standalone="no"?>
<!DOCTYPE svg PUBLIC "-//W3C//DTD SVG 20010904//EN"
 "http://www.w3.org/TR/2001/REC-SVG-20010904/DTD/svg10.dtd">
<svg version="1.0" xmlns="http://www.w3.org/2000/svg"
 width="393.000000pt" height="393.000000pt" viewBox="0 0 393.000000 393.000000"
 preserveAspectRatio="xMidYMid meet">
<metadata>
Created by potrace 1.11, written by Peter Selinger 2001-2013
</metadata>
<g transform="translate(0.000000,393.000000) scale(0.100000,-0.100000)"
fill="#000000" stroke="none">
<path d="M1253 3749 c-28 -10 -29 -28 -8 -259 21 -232 20 -242 -12 -275 l-28
-28 -222 8 -223 7 -28 -29 -29 -28 5 -230 4 -230 -25 -24 -26 -23 -218 17
c-258 20 -283 19 -294 -13 -11 -28 -55 12 430 -391 252 -209 386 -314 410
-321 21 -6 219 -10 484 -10 l449 0 29 29 29 29 0 453 c0 316 -4 463 -12 491
-7 23 -47 81 -102 146 -50 59 -198 235 -329 392 -131 157 -244 288 -250 291
-7 4 -22 3 -34 -2z"/>
<path d="M2079 2901 l-29 -29 0 -447 0 -447 29 -29 29 -29 447 0 447 0 29 29
29 29 0 447 0 447 -29 29 -29 29 -447 0 -447 0 -29 -29z"/>
<path d="M999 1821 l-29 -29 0 -447 0 -447 29 -29 29 -29 447 0 447 0 29 29
29 29 0 447 0 447 -29 29 -29 29 -447 0 -447 0 -29 -29z"/>
<path d="M2079 1821 l-29 -29 0 -447 0 -447 29 -29 29 -29 447 0 447 0 29 29
29 29 0 447 0 447 -29 29 -29 29 -447 0 -447 0 -29 -29z"/>
</g>
</svg>
